# xmcd
#
# Track frame offsets:
#	150
#	12523
#	36903
#	54023
#	70884
#	94001
#	111488
#	127570
#	173361
#	188044
#	201164
#	239903
#	270865
#
# Disc length: 3765 seconds
#
# Revision: 1
# Processed by: cddbd v1.5.2PL0 Copyright (c) Steve Scherf et al.
# Submitted via: audiograbber 1.83.01
#
DISCID=a60eb30d
DTITLE=FANFAREKORPS NATIONALE RESERVE - IUBILAEUS
DYEAR=2008
DGENRE=Fanfare
TTITLE0=CDS MARS
TTITLE1=OUVERTURE JOYEUSE
TTITLE2=UNTER DER ADMIRALS FLAGGE
TTITLE3=ESTHER
TTITLE4=PIRATES OF THE CARIBBEAN
TTITLE5=GIRL FROM IPANEMA
TTITLE6=FLY ME TO THE MOON
TTITLE7=LET ME ENTERTAIN YOU
TTITLE8=ALFIE
TTITLE9=ABSCHIED DER SLAWIN
TTITLE10=THAT'S THE WAY I LIKE 'EM
TTITLE11=ELVIS IN CONCERT
TTITLE12=I.G.K. MARS
EXTD=
EXTT0=
EXTT1=
EXTT2=
EXTT3=
EXTT4=
EXTT5=
EXTT6=
EXTT7=
EXTT8=
EXTT9=
EXTT10=
EXTT11=
EXTT12=
PLAYORDER=
